<svg width="23" height="23" viewBox="0 0 23 23" fill="none" xmlns="http://www.w3.org/2000/svg">
<path d="M3.26743 3.04279H7.09471C7.79893 3.04279 8.29201 2.97645 8.29201 3.68067V2.40491C8.29201 1.70069 7.79893 1.12915 7.09471 1.12915H1.99168C0.715919 1.12915 -0.293843 2.48464 0.0780407 4.31854C0.0780407 4.31854 1.22048 10.2987 1.30085 10.6705C1.51327 11.6542 2.65571 12.611 3.87852 12.611H8.31688C9.02174 12.611 8.29201 11.4016 8.29201 10.6973V9.42158C8.29201 10.1258 7.79893 10.6973 7.09471 10.6973H4.54319C3.83897 10.6973 3.37396 10.0327 3.26743 9.42158C3.16091 8.81049 2.25703 4.74401 2.25703 4.74401C2.04462 3.5212 2.56258 3.04279 3.26743 3.04279ZM19.7324 3.04279H15.9051C15.2009 3.04279 14.0329 2.97645 14.0329 3.68067V2.40491C14.0329 1.70069 15.2009 1.12915 15.9051 1.12915H21.0081C22.2839 1.12915 23.2943 2.48464 22.9218 4.31854C22.9218 4.31854 21.8801 10.3267 21.7921 10.6973C21.5663 11.6542 20.4895 12.611 19.2406 12.611H14.6823C13.9781 12.611 14.0329 11.4016 14.0329 10.6973V9.42158C14.0329 10.1258 15.2009 10.6973 15.9051 10.6973H18.4566C19.1608 10.6973 19.6265 10.0327 19.7324 9.42158C19.8383 8.81049 20.7428 4.74401 20.7428 4.74401C20.9545 3.5212 20.4372 3.04279 19.7324 3.04279V3.04279ZM13.2879 13.8867C13.2879 9.44837 11.5599 13.8867 11.5599 13.8867C11.5599 13.8867 9.64622 9.44837 9.64622 13.8867C9.64622 18.3251 7.54696 20.2655 7.54696 20.2655H15.3878C15.3871 20.2655 13.2879 18.3251 13.2879 13.8867Z" fill="#FFAC33"/>
<path d="M18.5765 4.04862C18.5765 8.37025 14.2581 15.6529 11.5599 15.6529C8.86101 15.6529 4.54321 8.37025 4.54321 4.04862C4.54321 0.734837 5.18109 0.0178613 6.45685 0.0178613C7.33329 0.0178613 10.3001 0.000638577 11.5599 0.000638577L16.025 6.96333e-07C17.8857 -0.000637183 18.5765 0.43631 18.5765 4.04862V4.04862Z" fill="#FFCC4D"/>
<path d="M17.2223 20.9034C17.2223 21.6076 17.3671 22.1791 16.6629 22.1791H6.45682C5.75196 22.1791 5.74048 21.6076 5.74048 20.9034V20.2655C5.74048 19.5613 6.48297 18.9897 7.14764 18.9897H16.025C16.6897 18.9897 17.2223 19.5613 17.2223 20.2655V20.9034V20.9034Z" fill="#C1694F"/>
<path d="M18.4981 21.9399C18.4981 22.4247 18.6033 22.817 17.6994 22.817H5.42026C4.59612 22.817 4.46472 22.4247 4.46472 21.9399V21.7804C4.46472 21.2956 4.93548 20.9033 5.42026 20.9033H17.6994C18.1836 20.9033 18.4981 21.2956 18.4981 21.7804V21.9399V21.9399Z" fill="#C1694F"/>
</svg>
